<svg width="44" height="44" viewBox="0 0 44 44" fill="none" xmlns="http://www.w3.org/2000/svg">
<path d="M39.875 12.3751C39.8751 13.5179 39.6378 14.6483 39.1781 15.6946C38.7184 16.7408 38.0463 17.6802 37.2045 18.4531C36.3626 19.2259 35.3694 19.8155 34.2878 20.1843C33.2061 20.5532 32.0596 20.6933 30.921 20.5958C28.9483 20.429 26.7703 20.7259 25.5127 22.2531L12.4007 38.1738C11.987 38.678 11.4724 39.09 10.89 39.3832C10.3075 39.6765 9.67011 39.8446 9.01877 39.8767C8.36743 39.9087 7.71659 39.8041 7.10814 39.5694C6.4997 39.3347 5.94713 38.9752 5.486 38.5141C5.02487 38.053 4.66541 37.5004 4.43073 36.892C4.19606 36.2835 4.09139 35.6327 4.12345 34.9813C4.1555 34.33 4.32359 33.6926 4.61687 33.1101C4.91016 32.5277 5.32215 32.0131 5.82633 31.5995L21.747 18.4875C23.2742 17.2298 23.5712 15.0518 23.4043 13.0791C23.2812 11.6458 23.5351 10.2051 24.1408 8.90021C24.7464 7.59528 25.6827 6.47139 26.8569 5.64009C28.031 4.80879 29.4021 4.29896 30.8341 4.1612C32.2661 4.02345 33.7093 4.26255 35.0203 4.85478L29.0143 10.8608C29.2467 11.8656 29.7565 12.785 30.4858 13.5143C31.2151 14.2436 32.1345 14.7534 33.1393 14.9858L39.1453 8.97978C39.6147 10.0156 39.875 11.1651 39.875 12.3751Z" stroke="#C52029" stroke-width="2" stroke-linecap="round" stroke-linejoin="round"/>
<path d="M8.92285 35.0625H8.93752V35.0772H8.92285V35.0625Z" stroke="#C52029" stroke-width="1.5" stroke-linecap="round" stroke-linejoin="round"/>
</svg>
