<svg width="44" height="44" viewBox="0 0 44 44" fill="none" xmlns="http://www.w3.org/2000/svg">
<path d="M4.125 34.375C13.9069 34.367 23.6464 35.6624 33.0862 38.2268C34.419 38.5898 35.75 37.5998 35.75 36.2175V34.375M6.875 8.25V9.625C6.875 9.98967 6.73013 10.3394 6.47227 10.5973C6.21441 10.8551 5.86467 11 5.5 11H4.125M4.125 11V10.3125C4.125 9.174 5.049 8.25 6.1875 8.25H37.125M4.125 11V27.5M37.125 8.25V9.625C37.125 10.384 37.741 11 38.5 11H39.875M37.125 8.25H37.8125C38.951 8.25 39.875 9.174 39.875 10.3125V28.1875C39.875 29.326 38.951 30.25 37.8125 30.25H37.125M4.125 27.5V28.1875C4.125 28.7345 4.3423 29.2591 4.72909 29.6459C5.11589 30.0327 5.64049 30.25 6.1875 30.25H6.875M4.125 27.5H5.5C5.86467 27.5 6.21441 27.6449 6.47227 27.9027C6.73013 28.1606 6.875 28.5103 6.875 28.875V30.25M37.125 30.25V28.875C37.125 28.5103 37.2699 28.1606 37.5277 27.9027C37.7856 27.6449 38.1353 27.5 38.5 27.5H39.875M37.125 30.25H6.875M27.5 19.25C27.5 20.7087 26.9205 22.1076 25.8891 23.1391C24.8576 24.1705 23.4587 24.75 22 24.75C20.5413 24.75 19.1424 24.1705 18.1109 23.1391C17.0795 22.1076 16.5 20.7087 16.5 19.25C16.5 17.7913 17.0795 16.3924 18.1109 15.3609C19.1424 14.3295 20.5413 13.75 22 13.75C23.4587 13.75 24.8576 14.3295 25.8891 15.3609C26.9205 16.3924 27.5 17.7913 27.5 19.25ZM33 19.25H33.0147V19.2647H33V19.25ZM11 19.25H11.0147V19.2647H11V19.25Z" stroke="#C52029" stroke-width="2" stroke-linecap="round" stroke-linejoin="round"/>
</svg>
