<svg width="30" height="30" viewBox="0 0 30 30" fill="none" xmlns="http://www.w3.org/2000/svg">
<circle cx="15" cy="15" r="15" fill="#C52029"/>
<path d="M21.9766 11.3113C21.9795 11.3083 21.9824 11.3083 21.9853 11.3083C21.9853 11.188 21.9795 11.0647 21.9736 10.9444C21.9385 10.2459 21.7451 9.59145 21.3877 8.99862C20.8281 8.06828 20.0049 7.47544 18.9561 7.19663C18.3496 7.03522 17.7285 7.01761 17.1074 7.01761C17.1074 7.02054 17.1074 7.02348 17.1074 7.02641C16.9902 7.02641 16.873 7.02641 16.7559 7.02641C16.5303 7.02641 16.3018 7.05576 16.0791 7C15.1123 7 14.1455 7 13.1787 7C13.0586 7.05576 12.9297 7.02054 12.8066 7.02641C12.6572 7.03228 12.5049 7.02641 12.3555 7.02348C12.209 7.02348 12.0654 7.02348 11.9189 7.02348C11.9189 7.02054 11.9189 7.01761 11.9189 7.01467C11.7168 7.01467 11.5117 7.02348 11.3096 7.02641C10.8965 7.03228 10.4951 7.08804 10.0967 7.1937C9.02734 7.47838 8.19238 8.08002 7.63867 9.04557C7.20214 9.80569 7.0498 10.6451 7.03222 11.5108C7.0205 12.1095 7.00585 12.7082 7.01464 13.3099C7.01757 13.3099 7.0205 13.3099 7.02343 13.3099C7.02343 14.1111 7.02343 14.9152 7.02343 15.7164H7.01464C7.00878 16.2917 7.0205 16.8698 7.02929 17.445C7.03808 18.1289 7.12597 18.8009 7.38085 19.4407C7.84668 20.6205 8.69628 21.3806 9.88867 21.771C10.5508 21.9882 11.2334 22.0146 11.9219 22.0087C11.9219 22.0058 11.9219 22.0028 11.9219 21.9999C12.0684 21.9999 12.2119 21.9999 12.3584 21.9999C12.6338 21.9999 12.9092 21.9676 13.1846 22.0234C14.084 22.0234 14.9805 22.0234 15.8799 22.0234C16.123 21.9676 16.3691 21.9999 16.6152 21.997C16.7207 22.0146 16.832 21.95 16.9346 22.0234C16.9844 22.0234 17.0312 22.0234 17.0811 22.0234C17.2012 21.9882 17.3213 22.0146 17.4443 22.0087C17.8779 21.994 18.3115 21.9764 18.7393 21.8825C19.7002 21.6712 20.5 21.2075 21.1152 20.4298C21.6016 19.8135 21.8477 19.1003 21.959 18.3314C21.9912 18.1142 21.9707 17.8941 22.0059 17.6769C22.0059 15.6607 22.0059 13.6474 22.0059 11.6312C21.9561 11.5314 21.9678 11.4198 21.9766 11.3113ZM20.6523 17.1369C20.6377 17.6241 20.623 18.1142 20.4941 18.5896C20.1836 19.7313 19.4189 20.3711 18.2734 20.556C17.4268 20.6939 16.5713 20.6645 15.7158 20.6734C15.3203 20.6792 14.9248 20.6734 14.5293 20.6734C13.4453 20.6734 12.3613 20.6851 11.2803 20.6147C10.7353 20.5794 10.2051 20.4738 9.73046 20.1891C8.98632 19.743 8.61718 19.0504 8.49707 18.211C8.37695 17.3599 8.39746 16.503 8.38867 15.6489C8.37695 14.4457 8.37695 13.2424 8.40918 12.0391C8.42382 11.5108 8.43261 10.9826 8.56738 10.469C8.85742 9.34786 9.5957 8.70807 10.7148 8.49676C11.4531 8.35882 12.2031 8.37937 12.9473 8.37056C14.2598 8.35589 15.5723 8.35589 16.8848 8.3823C17.4414 8.39404 17.998 8.39991 18.543 8.53491C19.6768 8.81666 20.3945 9.6208 20.5644 10.7889C20.6553 11.4052 20.6611 12.0274 20.667 12.6466C20.6846 14.1434 20.6963 15.6401 20.6523 17.1369Z" fill="#FEFEFE"/>
<path d="M7.01465 13.3453C7.01465 13.3335 7.01465 13.3218 7.01465 13.3101C7.00879 13.3101 7.00586 13.3101 7 13.3101C7 14.1113 7 14.9154 7 15.7166H7.01172H7.01465C7.01465 15.7049 7.01465 15.6961 7.01465 15.6843C7.01465 14.9066 7.01465 14.1259 7.01465 13.3453Z" fill="#FEFEFE"/>
<path d="M12.3643 7.01372C12.6367 7.00549 12.9092 7.03018 13.1816 7C12.9092 7 12.6338 7 12.3613 7C12.3613 7.00549 12.3584 7.00823 12.3584 7.01372C12.3613 7.01372 12.3613 7.01372 12.3643 7.01372Z" fill="#FEFEFE"/>
<path d="M12.3672 22.0115C12.3643 22.0115 12.3613 22.0115 12.3584 22.0115C12.3584 22.017 12.3613 22.0197 12.3613 22.0252C12.6338 22.0252 12.9092 22.0252 13.1816 22.0252C12.9121 21.9923 12.6396 22.0197 12.3672 22.0115Z" fill="#FEFEFE"/>
<path d="M16.5977 22.0115C16.3574 22.0198 16.1172 21.9951 15.877 22.0253C16.1201 22.0253 16.3662 22.0253 16.6094 22.0253C16.6094 22.0198 16.6094 22.017 16.6094 22.0115C16.6064 22.0115 16.6035 22.0115 16.5977 22.0115Z" fill="#FEFEFE"/>
<path d="M16.7471 7.01372C16.75 7.01372 16.7529 7.01372 16.7559 7.01372C16.7559 7.00823 16.7559 7.00549 16.7559 7C16.5303 7 16.3076 7 16.082 7C16.3047 7.03292 16.5273 7.00549 16.7471 7.01372Z" fill="#FEFEFE"/>
<path d="M12.3525 7.01575C12.3525 7.00945 12.3555 7.00315 12.3613 7C12.2148 7 12.0684 7 11.9219 7C11.9219 7.0063 11.9219 7.00945 11.9219 7.01575C11.9277 7.01575 11.9336 7.01575 11.9424 7.01575C12.0771 7.01575 12.2148 7.01575 12.3525 7.01575Z" fill="#FEFEFE"/>
<path d="M12.3525 7.01465C12.3525 7.01891 12.3564 7.02316 12.3564 7.02742C12.3564 7.02316 12.3564 7.01891 12.3604 7.01465C12.3564 7.01465 12.3564 7.01465 12.3525 7.01465Z" fill="#FEFEFE"/>
<path d="M12.3525 22.0117C12.2178 22.0117 12.0801 22.0117 11.9453 22.0117C11.9365 22.0117 11.9307 22.0117 11.9219 22.0117C11.9219 22.018 11.9219 22.0212 11.9219 22.0275C12.0684 22.0275 12.2148 22.0275 12.3613 22.0275C12.3525 22.0243 12.3496 22.018 12.3525 22.0117Z" fill="#FEFEFE"/>
<path d="M12.3525 22.0157C12.3564 22.0157 12.3604 22.0157 12.3604 22.0157C12.3604 22.0114 12.3604 22.0072 12.3564 22.0029C12.3564 22.0029 12.3525 22.0072 12.3525 22.0157Z" fill="#FEFEFE"/>
<path d="M16.7646 7.01575C16.8701 7.01575 16.9756 7.01575 17.0811 7.01575C17.0898 7.01575 17.0986 7.01575 17.1074 7.01575C17.1074 7.00945 17.1074 7.0063 17.1074 7C16.9902 7 16.873 7 16.7559 7C16.7646 7.0063 16.7676 7.00945 16.7646 7.01575Z" fill="#FEFEFE"/>
<path d="M16.7656 7.01781C16.7656 7.01457 16.7656 7.01457 16.7656 7.01781C16.7624 7.01781 16.7591 7.01781 16.7559 7.01781C16.7559 7.02105 16.7559 7.02429 16.7591 7.03077C16.7624 7.02753 16.7656 7.02429 16.7656 7.01781Z" fill="#FEFEFE"/>
<path d="M21.9853 11.3083C21.9853 11.3142 21.9853 11.3201 21.9853 11.323C21.9941 11.4287 21.9677 11.5343 21.9999 11.6371C21.9999 11.5285 21.9999 11.4228 21.9999 11.3142C21.9941 11.3083 21.9912 11.3083 21.9853 11.3083Z" fill="#FEFEFE"/>
<path d="M16.6182 22.0114C16.6182 22.0142 16.6182 22.0169 16.6182 22.0169C16.6152 22.0224 16.6123 22.0251 16.6094 22.0251C16.7178 22.0251 16.8232 22.0251 16.9316 22.0251C16.8291 21.995 16.7236 22.0169 16.6182 22.0114Z" fill="#FEFEFE"/>
<path d="M16.6211 22.0155C16.6211 22.0117 16.6172 22.0078 16.6133 22C16.6133 22.0039 16.6094 22.0078 16.6094 22.0155C16.6133 22.0155 16.6172 22.0155 16.6211 22.0155Z" fill="#FEFEFE"/>
<path d="M14.5322 10.6567C12.4082 10.6538 10.6797 12.3795 10.6738 14.5102C10.668 16.635 12.3936 18.3695 14.5235 18.3753C16.6445 18.3812 18.376 16.6526 18.3789 14.519C18.3848 12.3883 16.6621 10.6597 14.5322 10.6567ZM14.5205 17.0136C13.1377 17.0106 12.0244 15.8925 12.0303 14.5014C12.0361 13.1191 13.1465 12.0097 14.5264 12.0097C15.9121 12.0097 17.0254 13.1249 17.0225 14.5131C17.0225 15.9071 15.9092 17.0165 14.5205 17.0136Z" fill="#FEFEFE"/>
<path d="M18.5342 9.60327C18.0332 9.60327 17.6348 10.0024 17.6348 10.5043C17.6348 10.9973 18.0361 11.3994 18.5254 11.4023C19.0264 11.4053 19.4277 11.0091 19.4307 10.5072C19.4307 10.0024 19.0381 9.60621 18.5342 9.60327Z" fill="#FEFEFE"/>
</svg>
