<svg width="30" height="30" viewBox="0 0 30 30" fill="none" xmlns="http://www.w3.org/2000/svg">
<circle cx="14.8933" cy="14.8933" r="14.8933" fill="#C52029"/>
<path d="M22.766 10.4206C22.2229 10.6615 21.6386 10.8243 21.0259 10.8971C21.6515 10.5223 22.1316 9.92923 22.3582 9.22141C21.7728 9.56865 21.1242 9.82056 20.4345 9.95634C19.8818 9.36781 19.0945 9 18.2226 9C16.5499 9 15.1932 10.3567 15.1932 12.0294C15.1932 12.2669 15.2201 12.498 15.2721 12.7199C12.7544 12.5936 10.522 11.3876 9.02773 9.55419C8.76701 10.0015 8.61745 10.5223 8.61745 11.0774C8.61745 12.1282 9.15267 13.0558 9.96509 13.5989C9.46874 13.5833 9.0013 13.4471 8.59305 13.2196C8.59283 13.2325 8.59283 13.2454 8.59283 13.258C8.59283 14.7258 9.6375 15.9501 11.0231 16.2282C10.7692 16.2978 10.501 16.3347 10.2251 16.3347C10.0295 16.3347 9.83993 16.3159 9.65513 16.2807C10.0406 17.4839 11.1591 18.3598 12.4851 18.3845C11.4481 19.1971 10.142 19.6813 8.72228 19.6813C8.47828 19.6813 8.23654 19.667 8 19.6388C9.33996 20.4987 10.9327 21 12.6434 21C18.2156 21 21.2629 16.3839 21.2629 12.3803C21.2629 12.249 21.26 12.1182 21.2541 11.9885C21.8465 11.5615 22.36 11.0281 22.766 10.4206Z" fill="#FEFEFE"/>
</svg>
